<?xml version="1.0" encoding="UTF-8" standalone="no"?>
<!-- Created with Inkscape (http://www.inkscape.org/) -->

<svg
   width="80mm"
   height="80mm"
   viewBox="0 0 80 80"
   version="1.1"
   id="svg34239"
   inkscape:version="1.2 (dc2aeda, 2022-05-15)"
   sodipodi:docname="banner-logo.svg"
   xmlns:inkscape="http://www.inkscape.org/namespaces/inkscape"
   xmlns:sodipodi="http://sodipodi.sourceforge.net/DTD/sodipodi-0.dtd"
   xmlns="http://www.w3.org/2000/svg"
   xmlns:svg="http://www.w3.org/2000/svg">
  <sodipodi:namedview
     id="namedview34241"
     pagecolor="#ffffff"
     bordercolor="#666666"
     borderopacity="1.0"
     inkscape:showpageshadow="2"
     inkscape:pageopacity="0.0"
     inkscape:pagecheckerboard="0"
     inkscape:deskcolor="#d1d1d1"
     inkscape:document-units="mm"
     showgrid="false"
     inkscape:zoom="0.98848874"
     inkscape:cx="291.35385"
     inkscape:cy="-19.221261"
     inkscape:window-width="2560"
     inkscape:window-height="1350"
     inkscape:window-x="0"
     inkscape:window-y="27"
     inkscape:window-maximized="1"
     inkscape:current-layer="layer1" />
  <defs
     id="defs34236" />
  <g
     inkscape:label="Layer 1"
     inkscape:groupmode="layer"
     id="layer1"
     transform="translate(-65,-100.22484)">
    <circle
       style="fill:#e2e2e2;fill-opacity:1;stroke:none;stroke-width:10;stroke-linecap:square;stroke-linejoin:miter;stroke-dasharray:none;stroke-opacity:1"
       id="circle27915"
       cx="105"
       cy="140.22484"
       r="40" />
    <circle
       style="fill:#f7f7f7;fill-opacity:1;stroke:none;stroke-width:10;stroke-linecap:square;stroke-linejoin:miter;stroke-dasharray:none;stroke-opacity:1"
       id="path22338"
       cx="105"
       cy="140.22484"
       r="35" />
    <path
       id="path16303"
       style="color:#000000;fill:#3e3e3e;fill-opacity:1;stroke-width:8.00003;stroke-linecap:round"
       d="m 94.733515,116.78819 a 2.9037164,2.9037164 0 0 0 -2.05461,0.8508 2.9037164,2.9037164 0 0 0 0,4.10622 l 5.13409,5.13372 a 2.9037164,2.9037164 0 0 0 4.106215,0 2.9037164,2.9037164 0 0 0 0,-4.10585 l -5.132585,-5.13409 a 2.9037164,2.9037164 0 0 0 -2.05311,-0.8508 z m 20.532965,0 a 2.9037164,2.9037164 0 0 0 -2.0546,0.8508 l -15.398885,15.40039 a 2.9037164,2.9037164 0 0 0 0,4.10622 2.9037164,2.9037164 0 0 0 4.106225,0 l 15.40038,-15.39926 a 2.9037164,2.9037164 0 0 0 0,-4.10735 2.9037164,2.9037164 0 0 0 -2.05312,-0.8508 z m -25.667055,5.13409 a 2.9037164,2.9037164 0 0 0 -2.05311,0.8508 2.9037164,2.9037164 0 0 0 0,4.10585 l 5.13409,5.13408 a 2.9037164,2.9037164 0 0 0 4.10622,0 2.9037164,2.9037164 0 0 0 0,-4.10734 l -5.13409,-5.13259 a 2.9037164,2.9037164 0 0 0 -2.05311,-0.8508 z m 30.799645,0 a 2.9037164,2.9037164 0 0 0 -2.05311,0.8508 l -5.13408,5.13259 a 2.9037164,2.9037164 0 0 0 0,4.10734 2.9037164,2.9037164 0 0 0 4.10772,0 l 5.13258,-5.13408 a 2.9037164,2.9037164 0 0 0 0,-4.10585 2.9037164,2.9037164 0 0 0 -2.05311,-0.8508 z m -35.932235,5.13258 a 2.9037164,2.9037164 0 0 0 -2.05273,0.85081 2.9037164,2.9037164 0 0 0 0,4.10584 l 15.39889,15.40039 a 2.9037164,2.9037164 0 0 0 4.106215,0 2.9037164,2.9037164 0 0 0 0,-4.10735 L 86.519945,127.90567 a 2.9037164,2.9037164 0 0 0 -2.05311,-0.85081 z m 41.064815,0 a 2.9037164,2.9037164 0 0 0 -2.0531,0.85081 l -5.13259,5.13371 a 2.9037164,2.9037164 0 0 0 0,4.10622 2.9037164,2.9037164 0 0 0 4.10622,0 l 5.13371,-5.13409 a 2.9037164,2.9037164 0 0 0 0,-4.10584 2.9037164,2.9037164 0 0 0 -2.05424,-0.85081 z m -15.39925,5.13409 a 2.9037164,2.9037164 0 0 0 -2.05274,0.8493 2.9037164,2.9037164 0 0 0 0,4.10735 l 15.40039,15.39888 a 2.9037164,2.9037164 0 0 0 4.10584,0 2.9037164,2.9037164 0 0 0 0,-4.10584 l -15.39888,-15.40039 a 2.9037164,2.9037164 0 0 0 -2.05461,-0.8493 z m -20.531475,10.2648 a 2.9037164,2.9037164 0 0 0 -2.05311,0.8508 l -5.13371,5.13409 a 2.9037164,2.9037164 0 0 0 0,4.10584 2.9037164,2.9037164 0 0 0 4.10584,0 l 5.13409,-5.13371 a 2.9037164,2.9037164 0 0 0 0,-4.10622 2.9037164,2.9037164 0 0 0 -2.05311,-0.8508 z m 20.531475,0 a 2.9037164,2.9037164 0 0 0 -2.05274,0.8508 l -15.399255,15.39926 a 2.9037164,2.9037164 0 0 0 0,4.10735 2.9037164,2.9037164 0 0 0 4.10622,0 l 15.398885,-15.40039 a 2.9037164,2.9037164 0 0 0 0,-4.10622 2.9037164,2.9037164 0 0 0 -2.05311,-0.8508 z m -15.398885,5.13408 a 2.9037164,2.9037164 0 0 0 -2.05311,0.84931 l -5.13409,5.13408 a 2.9037164,2.9037164 0 0 0 0,4.10585 2.9037164,2.9037164 0 0 0 4.10772,0 l 5.13259,-5.13259 a 2.9037164,2.9037164 0 0 0 0,-4.10734 2.9037164,2.9037164 0 0 0 -2.05311,-0.84931 z m 20.532965,0 a 2.9037164,2.9037164 0 0 0 -2.0546,0.84931 2.9037164,2.9037164 0 0 0 0,4.10734 l 5.13409,5.13259 a 2.9037164,2.9037164 0 0 0 4.10622,0 2.9037164,2.9037164 0 0 0 0,-4.10585 l -5.13258,-5.13408 a 2.9037164,2.9037164 0 0 0 -2.05313,-0.84931 z m -5.13408,5.13259 a 2.9037164,2.9037164 0 0 0 -2.05274,0.8508 2.9037164,2.9037164 0 0 0 0,4.10585 l 5.13371,5.13409 a 2.9037164,2.9037164 0 0 0 4.10623,0 2.9037164,2.9037164 0 0 0 0,-4.10622 l -5.13408,-5.13372 a 2.9037164,2.9037164 0 0 0 -2.05312,-0.8508 z" />
  </g>
</svg>
