<?xml version="1.0" encoding="UTF-8" standalone="no"?>
<!-- Created with Inkscape (http://www.inkscape.org/) -->

<svg
   width="210mm"
   height="297mm"
   viewBox="0 0 210 297"
   version="1.1"
   id="svg5"
   inkscape:version="1.2 (dc2aeda, 2022-05-15)"
   sodipodi:docname="book-cover-1.svg"
   xml:space="preserve"
   xmlns:inkscape="http://www.inkscape.org/namespaces/inkscape"
   xmlns:sodipodi="http://sodipodi.sourceforge.net/DTD/sodipodi-0.dtd"
   xmlns="http://www.w3.org/2000/svg"
   xmlns:svg="http://www.w3.org/2000/svg"><sodipodi:namedview
     id="namedview7"
     pagecolor="#ffffff"
     bordercolor="#666666"
     borderopacity="1.0"
     inkscape:showpageshadow="2"
     inkscape:pageopacity="0.0"
     inkscape:pagecheckerboard="0"
     inkscape:deskcolor="#d1d1d1"
     inkscape:document-units="mm"
     showgrid="false"
     inkscape:zoom="0.87017765"
     inkscape:cx="141.35045"
     inkscape:cy="601.0267"
     inkscape:window-width="2560"
     inkscape:window-height="1350"
     inkscape:window-x="0"
     inkscape:window-y="27"
     inkscape:window-maximized="1"
     inkscape:current-layer="layer1" /><defs
     id="defs2"><clipPath
       clipPathUnits="userSpaceOnUse"
       id="clipPath12297"><path
         d="M 0,0 H 595.27559 V 841.88976 H 0 Z"
         id="path12295" /></clipPath></defs><g
     inkscape:label="Layer 1"
     inkscape:groupmode="layer"
     id="layer1"><circle
       style="fill:#fbad50;fill-opacity:1;stroke:none;stroke-width:10;stroke-linecap:square;stroke-linejoin:miter;stroke-dasharray:none;stroke-opacity:1"
       id="circle27915"
       cx="105"
       cy="64.800133"
       r="40" /><circle
       style="fill:#fb900f;fill-opacity:1;stroke:none;stroke-width:10;stroke-linecap:square;stroke-linejoin:miter;stroke-dasharray:none;stroke-opacity:1"
       id="path22338"
       cx="105"
       cy="64.800133"
       r="35" /><path
       id="path16303"
       style="color:#000000;fill:#a45a03;fill-opacity:1;stroke-width:8.00003;stroke-linecap:round"
       d="m 94.733517,41.363471 a 2.9037164,2.9037164 0 0 0 -2.05461,0.8508 2.9037164,2.9037164 0 0 0 0,4.10622 l 5.134085,5.13372 a 2.9037164,2.9037164 0 0 0 4.106218,0 2.9037164,2.9037164 0 0 0 0,-4.10585 l -5.132588,-5.13409 a 2.9037164,2.9037164 0 0 0 -2.053105,-0.8508 z m 20.532963,0 a 2.9037164,2.9037164 0 0 0 -2.0546,0.8508 l -15.398888,15.40039 a 2.9037164,2.9037164 0 0 0 0,4.10622 2.9037164,2.9037164 0 0 0 4.106218,0 l 15.40039,-15.39926 a 2.9037164,2.9037164 0 0 0 0,-4.10735 2.9037164,2.9037164 0 0 0 -2.05312,-0.8508 z m -25.667053,5.13409 a 2.9037164,2.9037164 0 0 0 -2.05311,0.8508 2.9037164,2.9037164 0 0 0 0,4.10585 l 5.13409,5.13408 a 2.9037164,2.9037164 0 0 0 4.106215,0 2.9037164,2.9037164 0 0 0 0,-4.10734 l -5.134085,-5.13259 a 2.9037164,2.9037164 0 0 0 -2.05311,-0.8508 z m 30.799643,0 a 2.9037164,2.9037164 0 0 0 -2.05311,0.8508 l -5.13408,5.13259 a 2.9037164,2.9037164 0 0 0 0,4.10734 2.9037164,2.9037164 0 0 0 4.10772,0 l 5.13258,-5.13408 a 2.9037164,2.9037164 0 0 0 0,-4.10585 2.9037164,2.9037164 0 0 0 -2.05311,-0.8508 z m -35.932233,5.13258 a 2.9037164,2.9037164 0 0 0 -2.05273,0.85081 2.9037164,2.9037164 0 0 0 0,4.10584 l 15.398885,15.40039 a 2.9037164,2.9037164 0 0 0 4.106218,0 2.9037164,2.9037164 0 0 0 0,-4.10735 L 86.519947,52.480951 a 2.9037164,2.9037164 0 0 0 -2.05311,-0.85081 z m 41.064813,0 a 2.9037164,2.9037164 0 0 0 -2.0531,0.85081 l -5.13259,5.13371 a 2.9037164,2.9037164 0 0 0 0,4.10622 2.9037164,2.9037164 0 0 0 4.10622,0 l 5.13371,-5.13409 a 2.9037164,2.9037164 0 0 0 0,-4.10584 2.9037164,2.9037164 0 0 0 -2.05424,-0.85081 z m -15.39925,5.13409 a 2.9037164,2.9037164 0 0 0 -2.05274,0.8493 2.9037164,2.9037164 0 0 0 0,4.10735 l 15.40039,15.39888 a 2.9037164,2.9037164 0 0 0 4.10584,0 2.9037164,2.9037164 0 0 0 0,-4.10584 l -15.39888,-15.40039 a 2.9037164,2.9037164 0 0 0 -2.05461,-0.8493 z m -20.531473,10.2648 a 2.9037164,2.9037164 0 0 0 -2.05311,0.8508 l -5.13371,5.13409 a 2.9037164,2.9037164 0 0 0 0,4.10584 2.9037164,2.9037164 0 0 0 4.10584,0 l 5.13409,-5.13371 a 2.9037164,2.9037164 0 0 0 0,-4.10622 2.9037164,2.9037164 0 0 0 -2.05311,-0.8508 z m 20.531473,0 a 2.9037164,2.9037164 0 0 0 -2.05274,0.8508 l -15.399253,15.39926 a 2.9037164,2.9037164 0 0 0 0,4.10735 2.9037164,2.9037164 0 0 0 4.106216,0 l 15.398887,-15.40039 a 2.9037164,2.9037164 0 0 0 0,-4.10622 2.9037164,2.9037164 0 0 0 -2.05311,-0.8508 z m -15.398883,5.13408 a 2.9037164,2.9037164 0 0 0 -2.05311,0.84931 l -5.13409,5.13408 a 2.9037164,2.9037164 0 0 0 0,4.10585 2.9037164,2.9037164 0 0 0 4.10772,0 l 5.132585,-5.13259 a 2.9037164,2.9037164 0 0 0 0,-4.10734 2.9037164,2.9037164 0 0 0 -2.053105,-0.84931 z m 20.532963,0 a 2.9037164,2.9037164 0 0 0 -2.0546,0.84931 2.9037164,2.9037164 0 0 0 0,4.10734 l 5.13408,5.13259 a 2.9037164,2.9037164 0 0 0 4.10622,0 2.9037164,2.9037164 0 0 0 0,-4.10585 l -5.13258,-5.13408 a 2.9037164,2.9037164 0 0 0 -2.05312,-0.84931 z m -5.13408,5.13259 a 2.9037164,2.9037164 0 0 0 -2.05274,0.8508 2.9037164,2.9037164 0 0 0 0,4.10585 l 5.13371,5.13409 a 2.9037164,2.9037164 0 0 0 4.10623,0 2.9037164,2.9037164 0 0 0 0,-4.10622 l -5.13409,-5.13372 a 2.9037164,2.9037164 0 0 0 -2.05311,-0.8508 z" /><rect
       style="fill:#fbad50;fill-opacity:1;stroke:none;stroke-width:7.99998;stroke-linecap:round;stroke-linejoin:round"
       id="rect19675"
       width="190"
       height="10"
       x="0"
       y="287" /><rect
       style="fill:#fb900f;fill-opacity:1;stroke:none;stroke-width:7.99998;stroke-linecap:round;stroke-linejoin:round"
       id="rect19729"
       width="175"
       height="10"
       x="0"
       y="277" /><rect
       style="fill:#a45a03;fill-opacity:1;stroke:none;stroke-width:7.99997;stroke-linecap:round;stroke-linejoin:round"
       id="rect19731"
       width="175"
       height="10"
       x="0"
       y="267" /><rect
       style="fill:#be6803;fill-opacity:1;stroke:none;stroke-width:7.99997;stroke-linecap:round;stroke-linejoin:round"
       id="rect19733"
       width="175"
       height="10"
       x="0"
       y="257" /><path
       id="path20595"
       style="fill:none;stroke:#be6803;stroke-width:10;stroke-linecap:square;stroke-opacity:1"
       d="m 175,262 c 16.56854,0 30,13.43146 30,30"
       sodipodi:nodetypes="cc" /><path
       id="path20862"
       style="fill:none;stroke:#a45a03;stroke-width:10;stroke-linecap:square;stroke-opacity:1"
       d="m 175.00254,272 c 11.04569,0 20,8.95431 20,20"
       sodipodi:nodetypes="cc" /><path
       id="path20916"
       style="fill:#fbad50;stroke:#fb900f;stroke-width:10;stroke-linecap:square;stroke-opacity:1"
       d="m 175,282 c 5.52285,0 10,4.47715 10,10"
       sodipodi:nodetypes="cc" /></g></svg>
