<?xml version="1.0" encoding="UTF-8" standalone="no"?>
<!-- Created with Inkscape (http://www.inkscape.org/) -->

<svg
   width="80mm"
   height="80mm"
   viewBox="0 0 80 80"
   version="1.1"
   id="svg34239"
   inkscape:version="1.2 (dc2aeda, 2022-05-15)"
   sodipodi:docname="favicon.svg"
   xmlns:inkscape="http://www.inkscape.org/namespaces/inkscape"
   xmlns:sodipodi="http://sodipodi.sourceforge.net/DTD/sodipodi-0.dtd"
   xmlns="http://www.w3.org/2000/svg"
   xmlns:svg="http://www.w3.org/2000/svg">
  <sodipodi:namedview
     id="namedview34241"
     pagecolor="#ffffff"
     bordercolor="#666666"
     borderopacity="1.0"
     inkscape:showpageshadow="2"
     inkscape:pageopacity="0.0"
     inkscape:pagecheckerboard="0"
     inkscape:deskcolor="#d1d1d1"
     inkscape:document-units="mm"
     showgrid="false"
     inkscape:zoom="2.4156379"
     inkscape:cx="106.18313"
     inkscape:cy="68.718909"
     inkscape:window-width="2560"
     inkscape:window-height="1350"
     inkscape:window-x="0"
     inkscape:window-y="27"
     inkscape:window-maximized="1"
     inkscape:current-layer="layer1" />
  <defs
     id="defs34236" />
  <g
     inkscape:label="Layer 1"
     inkscape:groupmode="layer"
     id="layer1"
     transform="translate(-65,-100.22484)">
    <circle
       style="fill:#ffffff;fill-opacity:1;stroke:none;stroke-width:10;stroke-linecap:square;stroke-linejoin:miter;stroke-dasharray:none;stroke-opacity:1"
       id="circle27915"
       cx="105"
       cy="140.22484"
       r="40" />
    <path
       id="path16303"
       style="color:#000000;fill:#3e3e3e;fill-opacity:1;stroke-width:8.00003;stroke-linecap:round"
       d="m 92.050799,110.664 a 3.6624796,3.6624796 0 0 0 -2.591495,1.07313 3.6624796,3.6624796 0 0 0 0,5.1792 l 6.475667,6.4752 a 3.6624796,3.6624796 0 0 0 5.179199,0 3.6624796,3.6624796 0 0 0 0,-5.17874 l -6.473767,-6.47566 A 3.6624796,3.6624796 0 0 0 92.050799,110.664 Z m 25.898381,0 a 3.6624796,3.6624796 0 0 0 -2.59148,1.07313 l -19.422729,19.42462 a 3.6624796,3.6624796 0 0 0 0,5.17921 3.6624796,3.6624796 0 0 0 5.179209,0 l 19.42462,-19.4232 a 3.6624796,3.6624796 0 0 0 0,-5.18063 3.6624796,3.6624796 0 0 0 -2.58962,-1.07313 z m -32.374047,6.47567 a 3.6624796,3.6624796 0 0 0 -2.589604,1.07312 3.6624796,3.6624796 0 0 0 0,5.17874 l 6.475667,6.47566 a 3.6624796,3.6624796 0 0 0 5.179207,0 3.6624796,3.6624796 0 0 0 0,-5.18062 l -6.475667,-6.47378 a 3.6624796,3.6624796 0 0 0 -2.589603,-1.07312 z m 38.847827,0 a 3.6624796,3.6624796 0 0 0 -2.5896,1.07312 l -6.47566,6.47378 a 3.6624796,3.6624796 0 0 0 0,5.18062 3.6624796,3.6624796 0 0 0 5.1811,0 l 6.47376,-6.47566 a 3.6624796,3.6624796 0 0 0 0,-5.17874 3.6624796,3.6624796 0 0 0 -2.5896,-1.07312 z m -45.321602,6.47376 a 3.6624796,3.6624796 0 0 0 -2.589124,1.07314 3.6624796,3.6624796 0 0 0 0,5.17872 l 19.422737,19.42463 a 3.6624796,3.6624796 0 0 0 5.179199,0 3.6624796,3.6624796 0 0 0 0,-5.18063 L 81.690961,124.68657 a 3.6624796,3.6624796 0 0 0 -2.589603,-1.07314 z m 51.795362,0 a 3.6624796,3.6624796 0 0 0 -2.58959,1.07314 l -6.47377,6.47518 a 3.6624796,3.6624796 0 0 0 0,5.17921 3.6624796,3.6624796 0 0 0 5.1792,0 l 6.47519,-6.47567 a 3.6624796,3.6624796 0 0 0 0,-5.17872 3.6624796,3.6624796 0 0 0 -2.59103,-1.07314 z m -19.42319,6.47567 a 3.6624796,3.6624796 0 0 0 -2.58914,1.07123 3.6624796,3.6624796 0 0 0 0,5.18063 l 19.42463,19.42272 a 3.6624796,3.6624796 0 0 0 5.17873,0 3.6624796,3.6624796 0 0 0 0,-5.17872 l -19.42272,-19.42463 a 3.6624796,3.6624796 0 0 0 -2.5915,-1.07123 z m -25.896505,12.94707 a 3.6624796,3.6624796 0 0 0 -2.589604,1.07312 l -6.475187,6.47567 a 3.6624796,3.6624796 0 0 0 0,5.17872 3.6624796,3.6624796 0 0 0 5.178727,0 l 6.475667,-6.47518 a 3.6624796,3.6624796 0 0 0 0,-5.17921 3.6624796,3.6624796 0 0 0 -2.589603,-1.07312 z m 25.896505,0 a 3.6624796,3.6624796 0 0 0 -2.58914,1.07312 l -19.423194,19.4232 a 3.6624796,3.6624796 0 0 0 0,5.18064 3.6624796,3.6624796 0 0 0 5.179207,0 L 114.06313,149.2885 a 3.6624796,3.6624796 0 0 0 0,-5.17921 3.6624796,3.6624796 0 0 0 -2.5896,-1.07312 z m -19.422731,6.47565 a 3.6624796,3.6624796 0 0 0 -2.589603,1.07125 l -6.475667,6.47565 a 3.6624796,3.6624796 0 0 0 0,5.17874 3.6624796,3.6624796 0 0 0 5.181099,0 l 6.473775,-6.47378 a 3.6624796,3.6624796 0 0 0 0,-5.18061 3.6624796,3.6624796 0 0 0 -2.589604,-1.07125 z m 25.898381,0 a 3.6624796,3.6624796 0 0 0 -2.59148,1.07125 3.6624796,3.6624796 0 0 0 0,5.18061 l 6.47567,6.47378 a 3.6624796,3.6624796 0 0 0 5.1792,0 3.6624796,3.6624796 0 0 0 0,-5.17874 l -6.47376,-6.47565 a 3.6624796,3.6624796 0 0 0 -2.58963,-1.07125 z m -6.47565,6.47378 a 3.6624796,3.6624796 0 0 0 -2.58914,1.07312 3.6624796,3.6624796 0 0 0 0,5.17874 l 6.47519,6.47567 a 3.6624796,3.6624796 0 0 0 5.17922,0 3.6624796,3.6624796 0 0 0 0,-5.17921 l -6.47565,-6.4752 a 3.6624796,3.6624796 0 0 0 -2.58962,-1.07312 z" />
  </g>
</svg>
